<?xml version="1.0" encoding="utf-8"?>
<!-- Generator: Adobe Illustrator 22.1.0, SVG Export Plug-In . SVG Version: 6.00 Build 0)  -->
<svg version="1.1" id="Layer_1" xmlns="http://www.w3.org/2000/svg" xmlns:xlink="http://www.w3.org/1999/xlink" x="0px" y="0px"
	 viewBox="0 0 2279 436.6" style="enable-background:new 0 0 2279 436.6;" xml:space="preserve">
<style type="text/css">
	.st0{fill:#1E5585;}
	.st1{fill:#CC2131;stroke:#CC2131;stroke-width:0.19;stroke-miterlimit:2.61;}
</style>
<title>Canada Life SVG</title>
<path class="st0" d="M1417.2,194.8c0,0-13-20.8-44.9-20.8c-42.3,0-71.7,39.9-71.7,89.4c0,54.7,31.1,82.5,67.3,82.5
	c37.1,0,51-24.3,51-24.3v20h40.6V115h-42.3L1417.2,194.8z M1417.2,301.6c0,0-12.1,19.1-33.7,20c-23.3,0-39.7-20.8-39.7-61.6
	c0-45.1,21.6-59.9,40.6-59.9c21.6,0,32.8,21.7,32.8,21.7V301.6z M703,314.6c-49.2,0-76.8-37.3-76.8-85.9c0-59.9,35.4-90.3,76.8-90.3
	s58.7,33.9,58.7,33.9l18.1-13.9c0,0-14.7-47.7-85.5-47.7c-64.8,0-115.7,50.3-115.7,119.8c0,77.3,53.5,115.4,111.4,115.4
	c67.4,0,89.8-46,89.8-46l-13.8-13C766.1,286.8,747.9,314.6,703,314.6L703,314.6z M1759.2,115h-44v226.5h143.4v-31.3h-99.3
	L1759.2,115L1759.2,115z M2003.6,171.4c0-28.6,13.8-36.5,25.9-36.5c7.8,0,14.7,4.3,14.7,4.3l8.6-14.8c-6-5.2-17.3-13.9-40.6-13.9
	c-21.6,0-39.7,12.1-46.6,32.1c-3.4,9.6-4.3,20-3.4,36.5h-24.2v25.2h24.2v137.1h41.4V204.4h36.3v-25.1h-36.3L2003.6,171.4
	L2003.6,171.4z M1056.2,174c-33.7,0-52.7,26-52.7,26v-20.7h-41.4v162.3h41.4V220c3.5-4.3,16.4-20,35.4-20c14.7,0,22.4,9.5,25.1,19.1
	c1.7,5.2,1.7,11.3,1.7,16.5v105.9h41.5V231.3c0-13.9-0.9-29.5-13-42.5C1085.5,180.1,1072.6,174,1056.2,174L1056.2,174z M862.8,174
	c-45.8,0-66.5,35.6-66.5,35.6l11.2,11.3c0,0,18.1-20.8,46.6-20.8c21.6,0,38,11.3,38,39v5.2c-11.2-3.5-22.5-6.9-38-6.9
	c-37.1,0-67.4,20.8-67.4,57.3c0,31.2,24.2,51.2,57,51.2c28.5,0,44.9-15.6,50.1-22.6v18.2h38.9v-92.8
	C932.7,192.2,903.4,174,862.8,174L862.8,174z M892.1,309.4c-9.4,7.2-20.9,11.2-32.8,11.3c-20.7,0-28.5-14.8-28.5-28.6
	c0-20,16.4-30.4,34.5-30.4c10.4,0,19,3.5,26.8,6.1L892.1,309.4L892.1,309.4z M1206.5,174c-45.7,0-67.3,35.6-67.3,35.6l12.1,11.3
	c0,0,18.1-20.8,46.6-20.8c21.6,0,38,11.3,38,39v5.2c-11.2-3.5-22.4-6.9-38-6.9c-37.1,0-67.4,20.8-67.4,57.3
	c0,31.2,24.2,51.2,56.1,51.2c29.4,0,44.9-15.6,51-22.6v18.2h38.9v-92.8C1276.5,192.2,1247.1,174,1206.5,174L1206.5,174z
	 M1235.8,309.4c-7.8,5.2-18.1,11.3-32.8,11.3c-20.7,0-28.5-14.8-28.5-28.6c0-20,15.6-30.4,34.5-30.4c10.4,0,18.1,3.5,26.8,6.1V309.4
	L1235.8,309.4z M1559.7,174c-45.8,0-66.5,35.6-66.5,35.6l11.3,11.3c0,0,18.1-20.8,46.6-20.8c21.6,0,38,11.3,38,39v5.2
	c-11.2-3.5-22.4-6.9-38-6.9c-37.1,0-67.4,20.8-67.4,57.3c0,31.2,24.2,51.2,57,51.2c28.5,0,44.9-15.6,50.1-22.6v18.2h38.9v-92.8
	C1629.6,192.2,1600.3,174,1559.7,174L1559.7,174z M1589,309.4c-9.4,7.2-20.9,11.2-32.8,11.3c-20.7,0-28.5-14.8-28.5-28.6
	c0-20,16.4-30.4,34.6-30.4c10.4,0,19,3.5,26.7,6.1V309.4L1589,309.4z M2197.9,232.1c-6.9-28.6-25.9-58.2-74.3-58.2
	c-51,0-83.8,40.8-83.8,85.9c0,49.5,29.4,85.9,85.5,85.9s74.3-39.9,74.3-39.9l-11.2-10.4c0,0-16.4,24.3-55.3,24.3
	c-33.7,0-51-26-51.8-55.5h119.2C2200.8,253.5,2199.9,242.7,2197.9,232.1L2197.9,232.1z M2082.1,240c4.3-26.9,19-40.8,39.7-40.8
	c30.2,0,36.3,23.4,36.3,36.5c0.5,1.4,0.8,2.9,0.9,4.3L2082.1,240z M1875.7,341.5h41.4V179.3h-41.4V341.5z M1874,133.2
	c0-12.1,10.4-21.7,22.4-21.7c12.9,0,22.4,9.5,22.4,21.7c0.1,12.3-9.8,22.4-22.1,22.6c-0.1,0-0.2,0-0.3,0
	C1884.4,155.8,1874,145.4,1874,133.2L1874,133.2z M2203,120.2h32v6.1h-12.1v33h-6.9v-33h-12.9L2203,120.2z M2239.3,120.2h9.5
	l10.4,31.2l11.2-31.2h8.6v39.1h-6.1v-29.5l-11.2,29.5h-5.2l-11.3-29.5v29.5h-6L2239.3,120.2z"/>
<path class="st1" d="M177.1,209.6c0-5.2,3.5-9.5,8.6-9.5c5.3,0.2,9.4,4.6,9.2,9.9c-0.2,5-4.2,9.1-9.2,9.2
	C180.6,219.1,177.1,214.8,177.1,209.6z M428.4,232.1c-0.9,2.6-0.9,6.1-1.7,11.3c-5.2,54.7-44,119.8-112.3,152.8
	c-40.9,19.4-87.1,24.6-131.3,14.8l-5.2-0.9l0.9-1.7l5.2,0.9c39.3,7.3,79.8,1.8,115.7-15.6c55.3-26.1,94.7-77.1,106.2-137.1
	c0.9-1.7,0.9-5.2,0.9-5.2s-4.3,0.9-6.9,6.1c0,0.9-0.9,1.8-0.9,3.5c-13.6,49.7-48.3,91-95,112.8c-34.6,16.8-73.6,21.9-111.4,14.8
	l-5.2-1.8v-0.9l5.2,0.9c85.4,11.8,166-42.3,187.4-125.8l1.7-5.2c-3.2,0.1-5.9,2.2-6.9,5.2c-0.9,0-0.9,0.9-0.9,1.8
	c-13,37.3-41.5,70.3-80.3,89.4c-29.4,13.9-62.2,18.2-91.5,13l-6-0.9l0.9-1.7l5.2,0.9c25,2.6,51.8-0.9,76-13
	c39.7-18.2,68.7-53.8,78.6-96.3l1.7-5.2c-3.2,0.1-5.9,2.2-6.9,5.2c-0.9,0.9-0.9,0.9-0.9,1.8c-11.2,31.2-35.4,58.1-67.4,73.8
	C260,340.6,235,345,211.7,341.5l-6-0.9l0.9-1.7l5.2,0.9c64.7,2.8,119.9-46.5,124.3-111.1c0.5-1.7,0.8-3.4,0.9-5.2
	c-3.3,0.8-5.7,3.6-6,6.9c-5.6,33.6-27.2,62.4-57.9,77.3c-17.3,7.8-36.3,11.3-54.4,9.5h0.9c-24.2-3.5-42.3-23.4-42.3-48.6
	c0-26,21.6-46.9,48.4-46.9h1.7v-0.9c-13.5-19-35.4-30.3-58.7-30.4c-15.8,0-31.1,4.8-44,13.9c3.4-35.6,24.2-69.4,59.6-85.9
	c51.8-24.3,114-2.6,138.2,49.5c2.9,5.8,5.2,12,6.9,18.2c2.6,7.8,6,7.8,6,7.8c-0.9-2.6-1.7-6.1-2.6-8.7c-1.9-6.2-4.2-12.3-6.9-18.2
	C297.1,106.4,224.6,80.3,165,109c-14.9,7.3-28.4,17.3-39.7,29.5l-2.6,4.3l-1.7-0.9l3.5-4.3c12.1-17.3,28.5-31.2,49.2-41.7
	c63.9-30.4,139.9-2.6,171,61.6c3.5,7.8,6.9,6.9,6.9,6.9c-1.7-2.6-2.6-5.2-4.3-7.8c-33.1-72-118.4-103.6-190.4-70.5c0,0,0,0-0.1,0
	c-0.7,0.3-1.5,0.7-2.2,1c-23,10.8-42.7,27.6-57,48.6l-2.6,4.3l-1.7-0.9l3.4-4.3c14.7-26,38-46.9,66.5-60.8
	c76-36.5,166.7-2.6,203.8,73.8c3.5,6.9,6.9,6.9,6.9,6.9c-2-2.9-3.4-6.1-4.3-9.5C329.1,61.3,228.9,24.8,144.3,64.7
	c-32,15.6-56.1,39.9-72.5,68.6l-3.5,4.3h-0.9l2.6-5.2c17.3-33.9,45.8-62.5,82.9-80.7c88.1-41.7,192.6-4.3,235.8,85.1
	c1.7,3.5,2.6,6.9,5.2,12.1c3.5,7.8,6.9,7.8,6.9,7.8c-1.4-2.8-2.5-5.7-3.5-8.7c-2.6-4.3-4.3-8.7-6-12.1C345.5,38.6,230.7-3,133.9,43
	c-39.7,19.1-70,51.2-88.9,87.7l-1.7,5.2l-1.7-0.9l2.6-5.2C62.3,87.3,96.8,51.7,141.7,30c101-47.7,221.1-4.3,268.6,96.3
	c7.8,17.4,13,31.3,16.4,52.1c0.9,2.6,0.9,3.5,1.7,5.2c1.7,7.8,4.3,8.7,4.3,8.7c0-3.5-0.8-6.1-1.7-9.5c-2.9-20.2-9-39.9-18.1-58.1
	C361.9,16.1,232.4-30.7,124.5,21.3C15.7,72.5-31,202.7,20.8,312c51,108.5,181.3,155.4,289.3,103.3c79.4-37.3,120-112.8,123.5-184
	v-5.2C430.8,226.8,428.7,229.2,428.4,232.1L428.4,232.1z"/>
</svg>
